<svg id="Layer_1" data-name="Layer 1" xmlns="http://www.w3.org/2000/svg" viewBox="0 0 345.57 394.06"><defs><style>.cls-1{font-size:88.49px;font-family:Cairo-Regular, Cairo;letter-spacing:-0.01em;}.cls-1,.cls-2{fill:#edf2fa;}</style></defs><title>logo-dark</title><text class="cls-1" transform="translate(0 356.01)">ISLAM-É</text><path class="cls-2" d="M332.75,143c-.1,0-10.14-1-21.49-13a59.51,59.51,0,0,1-6.78-9,45.42,45.42,0,0,0-13.12-13.48A45.69,45.69,0,0,0,292,94.65a46.4,46.4,0,0,0-.93-5.94,58.59,58.59,0,0,1-1.6-11.18c-.41-16.31,6-24.3,6-24.37a2.36,2.36,0,0,0-3.32-3.33c-.08.06-8.09,6.38-24.37,6a58.71,58.71,0,0,1-11.19-1.6A45.36,45.36,0,0,0,237.84,54a45.33,45.33,0,0,0-13.48-13.13,58.81,58.81,0,0,1-9-6.78c-11.84-11.24-13-21.39-13-21.48a2.36,2.36,0,0,0-4.71,0c0,.1-1,10.14-13,21.49a58.85,58.85,0,0,1-9,6.78,44.44,44.44,0,0,0-4.86,3.55A45.7,45.7,0,0,0,162.15,54a46.06,46.06,0,0,0-12.87-.68,44.73,44.73,0,0,0-5.94.94,59.46,59.46,0,0,1-11.18,1.59c-16.29.38-24.3-6-24.37-6a2.36,2.36,0,0,0-3.33,3.32c.06.08,6.44,8.07,6,24.38a59.46,59.46,0,0,1-1.59,11.18,45.49,45.49,0,0,0-.94,6,46,46,0,0,0,.68,12.86A45.23,45.23,0,0,0,95.51,121a58.64,58.64,0,0,1-6.78,9c-11.24,11.83-21.39,13-21.48,13a2.37,2.37,0,0,0,0,4.71c.1,0,10.26,1.15,21.5,13a58.16,58.16,0,0,1,6.78,9,44.44,44.44,0,0,0,3.55,4.86,45.43,45.43,0,0,0,9.57,8.62,46.08,46.08,0,0,0-.68,12.87,45.34,45.34,0,0,0,.94,5.94,59.58,59.58,0,0,1,1.59,11.18c.42,16.32-6,24.3-6,24.37a2.37,2.37,0,0,0,3.32,3.34c.08-.07,8-6.45,24.38-6a58.71,58.71,0,0,1,11.18,1.6,45.57,45.57,0,0,0,18.81.25,46,46,0,0,0,8.62,9.58l0,0a45.11,45.11,0,0,0,4.81,3.5,59.51,59.51,0,0,1,9,6.78c11.83,11.24,13,21.4,13,21.49a2.36,2.36,0,0,0,2.34,2.14h0a2.36,2.36,0,0,0,2.35-2.13c0-.1,1.14-10.26,13-21.5a58.16,58.16,0,0,1,9-6.78,45.07,45.07,0,0,0,4.86-3.54,45.72,45.72,0,0,0,8.62-9.58,46.08,46.08,0,0,0,12.87.68,45.32,45.32,0,0,0,5.94-.93,58.71,58.71,0,0,1,11.18-1.6c16.32-.37,24.3,6,24.37,6a2.36,2.36,0,0,0,3.18-.14,2.38,2.38,0,0,0,.16-3.18c-.07-.08-6.44-8.06-6-24.37a58.71,58.71,0,0,1,1.6-11.19,45.53,45.53,0,0,0,.25-18.81,45.42,45.42,0,0,0,13.12-13.48,59.47,59.47,0,0,1,6.78-9c11.24-11.83,21.4-13,21.49-13a2.36,2.36,0,0,0,0-4.71ZM250.29,58a42.15,42.15,0,0,1,5.33.83,61.83,61.83,0,0,0,12.09,1.71A51.63,51.63,0,0,0,288,57.38a52,52,0,0,0-3.19,20.27,62.82,62.82,0,0,0,1.71,12.1,41.87,41.87,0,0,1,.83,5.33,41.08,41.08,0,0,1-.32,9.86A45.43,45.43,0,0,0,266,99.78H245.58V79.4a45.39,45.39,0,0,0-5.16-21A41.15,41.15,0,0,1,250.29,58ZM159.14,191h22l15.54,15.54L182.24,220.9a40.79,40.79,0,0,1-17.86,10.44,40.83,40.83,0,0,1-5.24-20Zm81.71-91.17h-22L203.34,84.24l14.41-14.41a40.79,40.79,0,0,1,17.86-10.44,40.73,40.73,0,0,1,5.24,20Zm0,45.59v16.92l-12,12-12,12H183.07l-12-12-12-12V128.44l12-12,12-12h33.85l12,12,12,12Zm-8.62-32.24-8.63-8.62h17.25v17.25Zm-20-13.35H187.8L200,87.58Zm-31.08,0h-22V79.4a40.73,40.73,0,0,1,5.25-20,40.75,40.75,0,0,1,17.85,10.44l14.42,14.41Zm-4.73,4.73-8.63,8.62-8.62,8.63V104.51Zm-22,22L138.87,142l-14.41-14.42A40.79,40.79,0,0,1,114,109.75a40.83,40.83,0,0,1,20-5.24h20.38Zm0,6.69v24.4l-12.2-12.2Zm0,31.08v22H134A40.73,40.73,0,0,1,114,181a40.79,40.79,0,0,1,10.44-17.86l14.41-14.41Zm4.73,4.72,8.62,8.63,8.63,8.62H159.14Zm28.66,22h24.4L200,203.15Zm31.08,0h22v20.38a40.83,40.83,0,0,1-5.24,20,40.79,40.79,0,0,1-17.86-10.44l-14.41-14.41Zm4.72-4.73,8.63-8.62,8.62-8.63v17.25Zm22-22,15.54-15.54,14.41,14.41A40.79,40.79,0,0,1,286,181a40.73,40.73,0,0,1-20,5.24H245.58Zm0-6.68v-24.4l12.2,12.2Zm0-31.09v-22H266a40.83,40.83,0,0,1,20,5.24,40.73,40.73,0,0,1-10.44,17.86L261.12,142ZM173.8,48.05a41.18,41.18,0,0,1,4.36-3.18,62.85,62.85,0,0,0,9.76-7.35A52,52,0,0,0,200,20.94a51.78,51.78,0,0,0,12.07,16.58,63.32,63.32,0,0,0,9.76,7.35,40.18,40.18,0,0,1,4.36,3.18,40.71,40.71,0,0,1,6.75,7.21,45.46,45.46,0,0,0-18.53,11.23L200,80.9,185.58,66.49a45.38,45.38,0,0,0-18.52-11.24A40.94,40.94,0,0,1,173.8,48.05Zm-61.14,47a39.53,39.53,0,0,1,.84-5.32,62.88,62.88,0,0,0,1.7-12.1A52,52,0,0,0,112,57.38a51.66,51.66,0,0,0,20.27,3.19,62.88,62.88,0,0,0,12.1-1.7,40.19,40.19,0,0,1,5.33-.84,41.08,41.08,0,0,1,9.86.32,45.43,45.43,0,0,0-5.16,21.05V99.78H134a45.46,45.46,0,0,0-21,5.16A41.15,41.15,0,0,1,112.66,95.07Zm-10,76.49a40.18,40.18,0,0,1-3.18-4.36,63,63,0,0,0-7.34-9.76,51.91,51.91,0,0,0-16.59-12.07,52.13,52.13,0,0,0,16.59-12.08,63.37,63.37,0,0,0,7.34-9.76,40.61,40.61,0,0,1,10.38-11.1A45.49,45.49,0,0,0,121.12,131l14.41,14.42-14.41,14.41a45.52,45.52,0,0,0-11.24,18.53A41.38,41.38,0,0,1,102.68,171.56Zm47,61.14a41.17,41.17,0,0,1-5.32-.83,63.06,63.06,0,0,0-12.1-1.71A51.78,51.78,0,0,0,112,233.35a52,52,0,0,0,3.19-20.27A62.77,62.77,0,0,0,113.5,201a39.93,39.93,0,0,1-.84-5.33,41.15,41.15,0,0,1,.32-9.87A45.43,45.43,0,0,0,134,191h20.38v20.38a45.43,45.43,0,0,0,5.16,21A41.15,41.15,0,0,1,149.7,232.7Zm76.49,10a39.22,39.22,0,0,1-4.36,3.18,63.15,63.15,0,0,0-9.76,7.35A51.89,51.89,0,0,0,200,269.79a52,52,0,0,0-12.08-16.58,62.85,62.85,0,0,0-9.76-7.35,39.22,39.22,0,0,1-4.36-3.18,41.38,41.38,0,0,1-6.75-7.2,45.35,45.35,0,0,0,18.53-11.24L200,209.83l14.41,14.41a45.42,45.42,0,0,0,18.53,11.24A41.38,41.38,0,0,1,226.19,242.68Zm61.14-47a42.15,42.15,0,0,1-.83,5.33,62.59,62.59,0,0,0-1.71,12.09A52,52,0,0,0,288,233.35a52.34,52.34,0,0,0-20.27-3.19,63.06,63.06,0,0,0-12.1,1.71,40.84,40.84,0,0,1-15.19.51,45.43,45.43,0,0,0,5.16-21V191H266A45.43,45.43,0,0,0,287,185.79,41.15,41.15,0,0,1,287.33,195.66Zm20.51-38.22a63.32,63.32,0,0,0-7.35,9.76,40.18,40.18,0,0,1-3.18,4.36,41.38,41.38,0,0,1-7.2,6.75,45.42,45.42,0,0,0-11.24-18.53l-14.41-14.41L278.87,131a45.38,45.38,0,0,0,11.24-18.52,40.61,40.61,0,0,1,10.38,11.1,62.85,62.85,0,0,0,7.35,9.76,52,52,0,0,0,16.59,12.08A51.8,51.8,0,0,0,307.84,157.44Z" transform="translate(-39.65 -10.46)"/><path class="cls-2" d="M223.18,161.62a23.15,23.15,0,0,1-5.21,2.67,22.83,22.83,0,1,1-15.27-43,23.14,23.14,0,0,1,5.74-1.21.79.79,0,0,0,.09-1.56,27.56,27.56,0,0,0-14.66,1A27.46,27.46,0,0,0,203,172.82a27.4,27.4,0,0,0,21.21-10,.79.79,0,0,0-1.06-1.15Z" transform="translate(-39.65 -10.46)"/><path class="cls-2" d="M203.19,138.71a.81.81,0,0,0,.2.81L208,144l-1.08,6.3a.8.8,0,0,0,.31.77.78.78,0,0,0,.83.06l5.66-3,5.65,3a.78.78,0,0,0,.37.09.79.79,0,0,0,.46-.15.8.8,0,0,0,.31-.77l-1.08-6.3,4.57-4.45a.77.77,0,0,0,.2-.81.79.79,0,0,0-.63-.54l-6.32-.91-2.83-5.73a.82.82,0,0,0-1.41,0l-2.83,5.73-6.31.91A.79.79,0,0,0,203.19,138.71Z" transform="translate(-39.65 -10.46)"/><text x="-39.65" y="-10.46"/></svg>